<mxfile host="Electron" agent="Mozilla/5.0 (Windows NT 10.0; Win64; x64) AppleWebKit/537.36 (KHTML, like Gecko) draw.io/28.0.4 Chrome/138.0.7204.97 Electron/37.2.1 Safari/537.36" version="28.0.4">
  <diagram name="Page-1" id="apXZC0DcTpMQ4_glA_Rj">
    <mxGraphModel dx="1042" dy="1027" grid="1" gridSize="10" guides="1" tooltips="1" connect="1" arrows="1" fold="1" page="1" pageScale="0.5" pageWidth="1169" pageHeight="827" math="0" shadow="0">
      <root>
        <mxCell id="0" />
        <mxCell id="1" parent="0" />
        <mxCell id="qr-spVeNHMmCQshMZmpl-5" value="" style="rounded=0;whiteSpace=wrap;html=1;fillColor=#f5f5f5;fontColor=#333333;strokeColor=#666666;fontSize=12;" parent="1" vertex="1">
          <mxGeometry x="370" y="310" width="30" height="50" as="geometry" />
        </mxCell>
        <mxCell id="qr-spVeNHMmCQshMZmpl-6" value="" style="rounded=0;whiteSpace=wrap;html=1;fillColor=#f5f5f5;fontColor=#333333;strokeColor=#666666;fontSize=12;" parent="1" vertex="1">
          <mxGeometry x="340" y="310" width="30" height="50" as="geometry" />
        </mxCell>
        <mxCell id="qr-spVeNHMmCQshMZmpl-7" value="" style="rounded=0;whiteSpace=wrap;html=1;fillColor=#f5f5f5;fontColor=#333333;strokeColor=#666666;fontSize=12;" parent="1" vertex="1">
          <mxGeometry x="310" y="310" width="30" height="50" as="geometry" />
        </mxCell>
        <mxCell id="qr-spVeNHMmCQshMZmpl-4" value="" style="shape=partialRectangle;whiteSpace=wrap;html=1;bottom=1;right=1;left=1;top=0;fillColor=none;routingCenterX=-0.5;rotation=-90;strokeWidth=2;fontSize=12;" parent="1" vertex="1">
          <mxGeometry x="315" y="275" width="50" height="120" as="geometry" />
        </mxCell>
        <mxCell id="qr-spVeNHMmCQshMZmpl-8" value="&lt;span style=&quot;color: rgb(32, 33, 34); font-family: sans-serif; text-align: left; background-color: rgb(248, 249, 250);&quot;&gt;Î»&lt;/span&gt;" style="text;html=1;align=center;verticalAlign=middle;whiteSpace=wrap;rounded=0;fontSize=12;" parent="1" vertex="1">
          <mxGeometry x="191" y="320" width="40" height="30" as="geometry" />
        </mxCell>
        <mxCell id="qr-spVeNHMmCQshMZmpl-10" value="" style="ellipse;whiteSpace=wrap;html=1;aspect=fixed;strokeWidth=2;fontSize=12;" parent="1" vertex="1">
          <mxGeometry x="470" y="291" width="40" height="40" as="geometry" />
        </mxCell>
        <mxCell id="3" value="" style="ellipse;whiteSpace=wrap;html=1;aspect=fixed;strokeWidth=2;fontSize=12;" parent="1" vertex="1">
          <mxGeometry x="470" y="235.5" width="40" height="40" as="geometry" />
        </mxCell>
        <mxCell id="4" value="&lt;font&gt;&lt;b&gt;...&lt;/b&gt;&lt;/font&gt;" style="text;strokeColor=none;align=center;fillColor=none;html=1;verticalAlign=middle;whiteSpace=wrap;rounded=0;rotation=90;fontSize=12;" parent="1" vertex="1">
          <mxGeometry x="463" y="336" width="60" height="30" as="geometry" />
        </mxCell>
        <mxCell id="5" value="" style="ellipse;whiteSpace=wrap;html=1;aspect=fixed;strokeWidth=2;fontSize=12;" parent="1" vertex="1">
          <mxGeometry x="470" y="371" width="40" height="40" as="geometry" />
        </mxCell>
        <mxCell id="10" value="" style="shape=flexArrow;endArrow=classic;html=1;exitX=1;exitY=0.5;exitDx=0;exitDy=0;fontSize=12;" parent="1" edge="1">
          <mxGeometry width="50" height="50" relative="1" as="geometry">
            <mxPoint x="231" y="335" as="sourcePoint" />
            <mxPoint x="281" y="335" as="targetPoint" />
          </mxGeometry>
        </mxCell>
        <mxCell id="11" value="" style="shape=flexArrow;endArrow=classic;html=1;exitX=1;exitY=0.5;exitDx=0;exitDy=0;fontSize=12;" parent="1" edge="1">
          <mxGeometry width="50" height="50" relative="1" as="geometry">
            <mxPoint x="410" y="334.5" as="sourcePoint" />
            <mxPoint x="460" y="334.5" as="targetPoint" />
          </mxGeometry>
        </mxCell>
        <mxCell id="12" value="" style="shape=flexArrow;endArrow=classic;html=1;exitX=1;exitY=0.5;exitDx=0;exitDy=0;fontSize=12;" parent="1" edge="1">
          <mxGeometry width="50" height="50" relative="1" as="geometry">
            <mxPoint x="532" y="334.5" as="sourcePoint" />
            <mxPoint x="582" y="334.5" as="targetPoint" />
          </mxGeometry>
        </mxCell>
        <mxCell id="14" value="&lt;font&gt;&lt;font style=&quot;color: rgb(51, 153, 255);&quot;&gt;N&lt;/font&gt;&lt;sub&gt;&lt;font style=&quot;color: rgb(51, 153, 255);&quot;&gt;q&lt;/font&gt;&lt;/sub&gt;&lt;font style=&quot;color: rgb(51, 153, 255);&quot;&gt;&amp;nbsp;tasks waiting&lt;/font&gt;&lt;/font&gt;" style="text;strokeColor=none;align=right;fillColor=none;html=1;verticalAlign=middle;whiteSpace=wrap;rounded=0;fontColor=#3399FF;fontSize=12;" parent="1" vertex="1">
          <mxGeometry x="210" y="380" width="190" height="30" as="geometry" />
        </mxCell>
        <mxCell id="16" value="" style="endArrow=classic;html=1;fontColor=#3399FF;strokeColor=#3399FF;strokeWidth=2;exitX=0.366;exitY=-0.187;exitDx=0;exitDy=0;exitPerimeter=0;fontSize=12;" parent="1" edge="1">
          <mxGeometry width="50" height="50" relative="1" as="geometry">
            <mxPoint x="279.77" y="380" as="sourcePoint" />
            <mxPoint x="400.23" y="380.61" as="targetPoint" />
          </mxGeometry>
        </mxCell>
        <mxCell id="18" value="&lt;font&gt;&lt;font style=&quot;color: rgb(51, 153, 255);&quot;&gt;N&lt;/font&gt;&lt;sub&gt;&lt;font style=&quot;color: rgb(51, 153, 255);&quot;&gt;s&lt;/font&gt;&lt;/sub&gt;&lt;font style=&quot;color: rgb(51, 153, 255);&quot;&gt;&amp;nbsp;tasks being processed&lt;/font&gt;&lt;/font&gt;" style="text;strokeColor=none;align=right;fillColor=none;html=1;verticalAlign=middle;whiteSpace=wrap;rounded=0;fontColor=#3399FF;fontSize=12;" parent="1" vertex="1">
          <mxGeometry x="329" y="432" width="210" height="30" as="geometry" />
        </mxCell>
        <mxCell id="19" value="" style="endArrow=classic;html=1;fontColor=#3399FF;strokeColor=#3399FF;strokeWidth=2;fontSize=12;" parent="1" edge="1">
          <mxGeometry width="50" height="50" relative="1" as="geometry">
            <mxPoint x="420" y="428" as="sourcePoint" />
            <mxPoint x="539.23" y="427.61" as="targetPoint" />
          </mxGeometry>
        </mxCell>
        <mxCell id="20" value="&lt;font&gt;&lt;font style=&quot;color: rgb(51, 153, 255);&quot;&gt;N&lt;/font&gt;&lt;sub&gt;&lt;font style=&quot;color: rgb(51, 153, 255);&quot;&gt;tot&lt;/font&gt;&lt;/sub&gt;&lt;font style=&quot;color: rgb(51, 153, 255);&quot;&gt;&amp;nbsp;tasks in the system&lt;/font&gt;&lt;/font&gt;" style="text;strokeColor=none;align=center;fillColor=none;html=1;verticalAlign=middle;whiteSpace=wrap;rounded=0;fontColor=#3399FF;fontSize=12;" parent="1" vertex="1">
          <mxGeometry x="274" y="472" width="249" height="30" as="geometry" />
        </mxCell>
        <mxCell id="21" value="" style="endArrow=classic;html=1;fontColor=#3399FF;strokeColor=#3399FF;strokeWidth=2;fontSize=12;" parent="1" edge="1">
          <mxGeometry width="50" height="50" relative="1" as="geometry">
            <mxPoint x="280" y="472" as="sourcePoint" />
            <mxPoint x="540" y="472" as="targetPoint" />
          </mxGeometry>
        </mxCell>
        <mxCell id="22" value="" style="endArrow=classic;html=1;fontColor=#FF3333;strokeColor=#FF0000;strokeWidth=2;exitX=0.366;exitY=-0.187;exitDx=0;exitDy=0;exitPerimeter=0;fontSize=12;" parent="1" edge="1">
          <mxGeometry width="50" height="50" relative="1" as="geometry">
            <mxPoint x="279.77" y="294.5" as="sourcePoint" />
            <mxPoint x="400.23" y="295.11" as="targetPoint" />
          </mxGeometry>
        </mxCell>
        <mxCell id="23" value="&lt;font&gt;&lt;font style=&quot;color: light-dark(rgb(255, 51, 51), rgb(255, 119, 119));&quot;&gt;T&lt;/font&gt;&lt;sub&gt;&lt;font style=&quot;color: rgb(255, 51, 51);&quot;&gt;q&lt;/font&gt;&lt;/sub&gt;&lt;font&gt;&lt;font style=&quot;color: rgb(255, 51, 51);&quot;&gt;&amp;nbsp;waiting time&lt;/font&gt;&lt;/font&gt;&lt;/font&gt;" style="text;strokeColor=none;align=right;fillColor=none;html=1;verticalAlign=middle;whiteSpace=wrap;rounded=0;fontColor=#FF3333;fontSize=12;" parent="1" vertex="1">
          <mxGeometry x="210" y="264.5" width="190" height="30" as="geometry" />
        </mxCell>
        <mxCell id="25" value="" style="endArrow=classic;html=1;fontColor=#FF3333;strokeColor=#FF0000;strokeWidth=2;exitX=0.366;exitY=-0.187;exitDx=0;exitDy=0;exitPerimeter=0;fontSize=12;" parent="1" edge="1">
          <mxGeometry width="50" height="50" relative="1" as="geometry">
            <mxPoint x="421.77" y="221" as="sourcePoint" />
            <mxPoint x="542.23" y="221.61" as="targetPoint" />
          </mxGeometry>
        </mxCell>
        <mxCell id="26" value="&lt;font&gt;&lt;font style=&quot;color: light-dark(rgb(255, 51, 51), rgb(255, 119, 119));&quot;&gt;T&lt;/font&gt;&lt;sub&gt;&lt;font style=&quot;color: rgb(255, 51, 51);&quot;&gt;s&lt;/font&gt;&lt;/sub&gt;&lt;font&gt;&lt;font style=&quot;color: rgb(255, 51, 51);&quot;&gt;&amp;nbsp;service time&lt;/font&gt;&lt;/font&gt;&lt;/font&gt;" style="text;strokeColor=none;align=right;fillColor=none;html=1;verticalAlign=middle;whiteSpace=wrap;rounded=0;fontColor=#FF3333;fontSize=12;" parent="1" vertex="1">
          <mxGeometry x="352" y="191" width="190" height="30" as="geometry" />
        </mxCell>
        <mxCell id="27" value="&lt;font&gt;&lt;font&gt;&lt;font style=&quot;color: rgb(255, 51, 51);&quot;&gt;T&lt;/font&gt;&lt;sub&gt;&lt;font style=&quot;color: rgb(255, 51, 51);&quot;&gt;tot&lt;/font&gt;&lt;/sub&gt;&lt;/font&gt;&lt;font&gt;&lt;font style=&quot;color: rgb(255, 51, 51);&quot;&gt;&amp;nbsp;&lt;font style=&quot;color: rgb(255, 51, 51);&quot;&gt;ti&lt;/font&gt;&lt;/font&gt;&lt;font style=&quot;color: rgb(255, 51, 51);&quot;&gt;me in the system&lt;/font&gt;&lt;/font&gt;&lt;/font&gt;" style="text;strokeColor=none;align=center;fillColor=none;html=1;verticalAlign=middle;whiteSpace=wrap;rounded=0;fontColor=#FF3333;fontSize=12;" parent="1" vertex="1">
          <mxGeometry x="282" y="150" width="248" height="30" as="geometry" />
        </mxCell>
        <mxCell id="28" value="" style="endArrow=classic;html=1;fontColor=#FF3333;strokeColor=#FF3333;strokeWidth=2;fontSize=12;" parent="1" edge="1">
          <mxGeometry width="50" height="50" relative="1" as="geometry">
            <mxPoint x="280" y="182" as="sourcePoint" />
            <mxPoint x="542" y="181.61" as="targetPoint" />
          </mxGeometry>
        </mxCell>
      </root>
    </mxGraphModel>
  </diagram>
</mxfile>
